<svg width="24" height="24" viewBox="0 0 24 24" fill="none" xmlns="http://www.w3.org/2000/svg">
<path d="M10.6757 2.06116C6.16823 2.68809 2.64412 6.20955 2.07011 10.6558C1.97667 11.3717 1.97667 12.6256 2.07011 13.3414C2.40828 15.9825 3.86332 18.4457 6.02584 20.0464C7.30288 20.989 8.69117 21.5893 10.2663 21.8738C11.0139 22.0117 12.4867 22.0428 13.3054 21.9361C17.2656 21.4337 20.5806 18.5791 21.6663 14.7331C21.9466 13.7282 22 13.3014 22 11.9986C22 10.6959 21.9466 10.269 21.6663 9.26416C20.5895 5.4359 17.2745 2.56804 13.3544 2.06561C12.6869 1.98113 11.2853 1.97668 10.6757 2.06116ZM10.6757 8.65946C11.1874 8.84176 11.4989 9.13077 11.7347 9.6332C11.8326 9.84662 11.8549 9.94889 11.8549 10.2646C11.8549 10.5936 11.8371 10.6781 11.7169 10.9315C11.579 11.2161 11.2275 11.6162 11.0673 11.6696C10.9249 11.7141 10.9827 11.8074 11.2275 11.9275C11.5701 12.0964 11.8371 12.3499 12.015 12.6745C12.1619 12.9457 12.1663 12.9724 12.1663 13.4437C12.1663 13.8438 12.1485 13.9817 12.064 14.1995C11.8549 14.7509 11.4277 15.1599 10.8804 15.3422C10.5689 15.4445 10.5378 15.4445 8.51763 15.4445H6.4708L6.45745 12.0431C6.453 10.1712 6.45745 8.615 6.4708 8.58387C6.4886 8.53497 6.86237 8.52607 8.43754 8.53941C10.3464 8.55275 10.3909 8.5572 10.6757 8.65946ZM16.4157 8.83731C16.438 8.88622 16.4602 9.01516 16.4602 9.12632C16.4602 9.46869 16.4469 9.46869 15.0364 9.45535C13.6748 9.44201 13.7015 9.44646 13.7015 9.0952C13.7015 8.73505 13.6303 8.75283 15.0808 8.75283C16.3089 8.75283 16.3712 8.75728 16.4157 8.83731ZM15.6682 10.1934C16.1354 10.2957 16.4424 10.4691 16.8207 10.8426C17.3502 11.3717 17.5459 11.8919 17.5192 12.75L17.5059 13.1769L15.7527 13.1902L14.004 13.1991L14.0352 13.4125C14.0975 13.8216 14.2888 14.1106 14.6092 14.2796C14.845 14.4041 15.4724 14.4174 15.686 14.3018C15.8417 14.2173 16.0375 13.9995 16.082 13.8661C16.1087 13.7816 16.1488 13.7771 16.7762 13.7771H17.4392V13.9016C17.4392 14.2529 16.8696 14.9732 16.4024 15.2088C15.686 15.569 14.5335 15.5512 13.8216 15.1688C13.2832 14.8798 12.8427 14.2529 12.7003 13.5771C12.6157 13.1724 12.6157 12.5277 12.7003 12.0964C12.9806 10.6914 14.231 9.89108 15.6682 10.1934Z" fill="#111111"/>
<path d="M8.05035 10.46V11.2873H8.93103C9.87398 11.2873 10.0652 11.2561 10.2743 11.0782C10.47 10.9181 10.5412 10.7491 10.5412 10.4644C10.5412 10.1264 10.4166 9.89509 10.172 9.7661C9.99853 9.6727 9.91402 9.6638 9.01999 9.65046L8.05035 9.63267V10.46Z" fill="#111111"/>
<path d="M8.05035 13.3993V14.3686L9.06487 14.3463C9.9548 14.3241 10.1016 14.3108 10.2752 14.2352C10.6489 14.0662 10.8091 13.8217 10.8091 13.4304C10.8091 13.008 10.64 12.7323 10.2752 12.5589C10.0927 12.4745 9.97705 12.4656 9.06487 12.4522L8.05035 12.4344V13.3993Z" fill="#111111"/>
<path d="M14.6311 11.2424C14.3065 11.4159 14.0574 11.8029 14.0574 12.1453V12.2654L15.116 12.2565L16.1701 12.2432L16.1835 12.1231C16.219 11.8295 15.8855 11.3581 15.543 11.2157C15.325 11.1223 14.8269 11.1401 14.6311 11.2424Z" fill="#111111"/>
</svg>
