<svg width="24" height="24" viewBox="0 0 24 24" fill="none" xmlns="http://www.w3.org/2000/svg">
<path d="M10.73 2.05275C8.92521 2.28721 7.2728 2.97885 5.82742 4.09642C5.37037 4.45201 4.59299 5.21789 4.21407 5.6868C3.1359 7.02319 2.42103 8.60185 2.11632 10.3212C2.00694 10.9308 1.96397 12.3961 2.03429 13.0643C2.35462 16.0575 4.00703 18.7498 6.55011 20.4106C7.81579 21.2351 9.24163 21.7548 10.7886 21.9462C11.3824 22.0205 12.6324 22.0166 13.2496 21.9423C17.7811 21.3796 21.3789 17.7808 21.9414 13.248C22.0195 12.6149 22.0195 11.3801 21.9414 10.7471C21.582 7.83988 19.953 5.23352 17.4881 3.61188C16.2029 2.76784 14.7731 2.24422 13.2496 2.05275C12.6558 1.98242 11.2925 1.98242 10.73 2.05275ZM8.43301 6.37453C8.74161 6.49176 9.03069 6.77701 9.14788 7.09353C9.31195 7.53899 9.19866 8.07433 8.86662 8.39084C8.63223 8.61748 8.34706 8.7269 7.96814 8.74643C7.55797 8.76597 7.29233 8.69564 7.01497 8.48463C6.24932 7.9063 6.44854 6.68323 7.35874 6.36672C7.65563 6.26512 8.14002 6.26903 8.43301 6.37453ZM15.7654 9.71161C16.2146 9.80539 16.656 10.0477 16.9842 10.3759C17.2185 10.6103 17.3006 10.7315 17.4607 11.0636C17.8358 11.8373 17.8592 12.0757 17.8592 14.8774V17.1165H16.6716H15.4802L15.4646 14.9165C15.4489 12.529 15.445 12.4938 15.2224 12.0796C14.9997 11.6732 14.6559 11.5052 14.1129 11.5364C13.6207 11.5677 13.234 11.8334 12.9879 12.3101L12.8785 12.5251L12.8668 14.8188L12.8551 17.1165H11.6675H10.4761V13.4629V9.8093H11.6675H12.859V10.3173C12.859 10.5947 12.8707 10.8253 12.8902 10.8253C12.9059 10.8253 12.9762 10.7354 13.0504 10.626C13.3317 10.2157 13.859 9.85228 14.3825 9.71551C14.6637 9.64127 15.4216 9.63736 15.7654 9.71161ZM9.06975 13.4629V17.1165H7.87829H6.68684V13.4629V9.8093H7.87829H9.06975V13.4629Z" fill="#111111"/>
</svg>
